<svg width="375" height="85" viewBox="0 0 375 85" fill="none" xmlns="http://www.w3.org/2000/svg">
<path d="M0 68.3813L14.5 66.2399C21.4167 65.8973 27.7917 67.2678 41.6667 72.2358C55.5417 77.2039 67.125 81.658 81 83.7994C94.875 85.9408 111.125 85.7695 125 78.66C138.875 71.5506 152.792 63.4989 166.667 63.0706C180.542 62.6424 194.458 69.8375 208.333 73.7776C222.208 77.8035 236.125 78.66 250 76.69C263.875 74.6342 277.792 69.8375 291.667 66.2399C305.542 62.6424 319.458 60.4153 333.333 63.4989C347.208 66.6682 361.125 75.2338 368.042 79.5166L375 83.7994V-1.00002H368.042C361.125 -1.00002 347.208 -1.00002 333.333 -1.00002C319.458 -1.00002 305.542 -1.00002 291.667 -1.00002C277.792 -1.00002 263.875 -1.00002 250 -1.00002C236.125 -1.00002 222.208 -1.00002 208.333 -1.00002C194.458 -1.00002 180.542 -1.00002 166.667 -1.00002C152.792 -1.00002 138.875 -1.00002 125 -1.00002C111.125 -1.00002 97.2083 -1.00002 83.3333 -1.00002C69.4583 -1.00002 55.5417 -1.00002 41.6667 -1.00002C27.7917 -1.00002 13.875 -1.00002 6.95833 -1.00002H0L0 68.3813Z" fill="#FFD748"/>
</svg>
