<svg width="238" height="20" viewBox="0 0 238 20" fill="none" xmlns="http://www.w3.org/2000/svg">
<path fill-rule="evenodd" clip-rule="evenodd" d="M149.764 11.9384C151.214 11.6331 152.655 11.3089 154.089 10.9644C154.61 10.8392 154.928 10.3194 154.801 9.80412L154.794 9.78384C162.558 9.66102 170.32 9.46495 178.079 9.19367C189.286 8.8014 200.564 8.14634 211.733 7.1203C222.77 6.10641 225.819 5.84592 235.313 4.13855C235.585 4.08975 236.109 4.09351 236.391 4.01594C236.659 3.9423 236.85 3.81358 236.973 3.68749C237.131 3.52765 237.222 3.34349 237.26 3.14185C237.3 2.92209 237.288 2.65352 237.096 2.35329C236.557 1.51058 235.687 1.27828 234.626 1.4545C233.713 1.60626 232.609 2.14665 231.745 2.20745C217.346 3.21831 202.958 4.34125 188.559 5.33147C166.514 6.84727 144.536 7.54746 122.553 7.95512C99.4419 7.72613 76.3412 6.8711 53.2794 5.43827C38.2598 4.50573 23.2714 3.13012 8.27064 1.92441C8.28174 1.85916 8.28376 1.79105 8.28045 1.72157C8.24712 1.1923 7.78394 0.788424 7.24843 0.819978C6.70588 0.852012 1.86438 0.982366 0.972043 1.19876C0.460901 1.32275 0.261535 1.63447 0.195455 1.76798C0.0158476 2.1341 0.00601951 2.53214 0.407605 2.91237C0.486979 2.98534 0.635044 3.10588 0.906945 3.18306C1.13935 3.25075 1.71517 3.33668 2.76139 3.41644C19.562 4.71116 36.3425 6.31049 53.162 7.35643C60.6708 7.82189 68.1842 8.2278 75.7033 8.56882C65.4986 8.68761 55.2899 8.82411 45.0651 9.02968C44.6248 9.03726 44.4112 9.1077 44.3719 9.12435C43.8109 9.36329 43.7724 9.80163 43.7835 10.0501C43.7865 10.1388 43.8628 10.8707 44.6868 10.9745C45.1691 11.0355 48.6518 11.157 49.9919 11.2288C56.4308 11.5795 56.2805 11.5254 62.8677 11.8293C77.353 12.4958 91.817 12.9447 106.319 13.3109C112.101 13.4566 117.883 13.5752 123.666 13.6639C107.001 15.0467 89.9899 14.9695 73.7782 15.1232C65.4151 15.2023 57.0499 15.23 48.6866 15.1135C44.941 15.0613 41.196 14.9469 37.4508 14.8762C36.2871 14.8543 35.1268 14.8056 33.9644 14.7768C33.8266 14.7736 32.0232 14.7568 31.7274 14.7628C30.9527 14.7786 30.775 15.4602 30.7682 15.4875C30.7352 15.6157 30.6082 16.533 31.5708 16.6757C45.479 18.7373 60.0565 18.2752 74.1024 18.6247C98.686 19.2365 123.334 19.1399 147.916 18.4139C158.788 18.0929 169.625 17.4095 180.482 16.7295C185.904 16.3898 191.341 16.0295 196.711 15.1912C197.249 15.107 198.47 15.0212 199.063 14.9212C199.364 14.8702 199.579 14.7894 199.677 14.7342C200.107 14.4947 200.193 14.1416 200.199 13.8941C200.203 13.7085 200.163 13.0551 199.275 12.8545C186.593 9.98392 172.526 11.8063 159.651 11.8994C156.356 11.9232 153.061 11.936 149.764 11.9384ZM139.028 11.9089C142.846 11.3366 146.626 10.6562 150.353 9.84573C141.084 9.95897 131.815 9.96803 122.542 9.87593C107.244 10.1596 91.9469 10.3021 76.6309 10.4793C86.5346 10.8507 96.4412 11.14 106.364 11.3903C117.248 11.6651 128.138 11.8426 139.028 11.9089ZM86.0272 16.9449C106.633 17.2679 127.266 17.1019 147.851 16.494C158.704 16.1734 169.519 15.491 180.354 14.8123C184.618 14.5452 188.893 14.2668 193.135 13.7466C182.173 12.4 170.495 13.7421 159.67 13.8202C152.833 13.8696 145.993 13.8721 139.156 13.8308C121.773 16.417 103.611 16.7895 86.0272 16.9449Z" fill="#FFD748"/>
</svg>
