<svg width="44" height="44" viewBox="0 0 44 44" fill="none" xmlns="http://www.w3.org/2000/svg">
<path d="M39 0H4.33333C1.95 0 0 1.95 0 4.33333V43.3333L8.66667 34.6667H39C41.3833 34.6667 43.3333 32.7167 43.3333 30.3333V4.33333C43.3333 1.95 41.3833 0 39 0ZM8.66667 26V20.6483L23.5733 5.74167C24.0067 5.30833 24.6783 5.30833 25.1117 5.74167L28.9467 9.57667C29.38 10.01 29.38 10.6817 28.9467 11.115L14.0183 26H8.66667ZM32.5 26H18.4167L22.75 21.6667H32.5C33.6917 21.6667 34.6667 22.6417 34.6667 23.8333C34.6667 25.025 33.6917 26 32.5 26Z" fill="#FFD748"/>
<path d="M8.66667 26V20.6483L23.5733 5.74167C24.0067 5.30833 24.6783 5.30833 25.1117 5.74167L28.9467 9.57667C29.38 10.01 29.38 10.6817 28.9467 11.115L14.0183 26H8.66667Z" fill="#FFD748"/>
<path d="M32.5 26H18.4167L22.75 21.6667H32.5C33.6917 21.6667 34.6667 22.6417 34.6667 23.8333C34.6667 25.025 33.6917 26 32.5 26Z" fill="#FFD748"/>
<path d="M8.66667 34.1667H8.45956L8.31311 34.3131L0.5 42.1262V4.33333C0.5 2.22614 2.22614 0.5 4.33333 0.5H39C41.1072 0.5 42.8333 2.22614 42.8333 4.33333V30.3333C42.8333 32.4405 41.1072 34.1667 39 34.1667H8.66667ZM8.16667 26V26.5H8.66667H14.0183H14.225L14.3714 26.3541L29.2997 11.4691L29.3002 11.4686C29.9288 10.84 29.9288 9.85171 29.3002 9.22311L25.4652 5.38811C24.8366 4.75952 23.8484 4.75952 23.2198 5.38811L8.31311 20.2948L8.16667 20.4412V20.6483V26ZM18.0631 25.6464L17.2096 26.5H18.4167H32.5C33.9678 26.5 35.1667 25.3011 35.1667 23.8333C35.1667 22.3655 33.9678 21.1667 32.5 21.1667H22.75H22.5429L22.3964 21.3131L18.0631 25.6464Z" fill="white" stroke="#FFD748"/>
</svg>
