<svg width="20" height="22" viewBox="0 0 20 22" fill="none" xmlns="http://www.w3.org/2000/svg">
<path d="M4.05935 0C2.61779 0 1.44796 1.52626 1.44796 3.401C1.44796 5.27388 2.61779 6.80055 4.05935 6.80055C5.50092 6.80055 6.66999 5.27388 6.66999 3.401C6.66999 1.52626 5.5009 0 4.05935 0ZM15.4021 0C13.9606 0 12.7915 1.52626 12.7915 3.401C12.7915 5.27388 13.9606 6.80055 15.4021 6.80055C16.8437 6.80055 18.0135 5.27388 18.0135 3.401C18.0135 1.52626 16.8437 0 15.4021 0ZM1.26274 10.5255C0.827059 10.5352 0.406429 10.7626 0.172806 11.163C-0.183211 11.7731 0.0286037 12.5546 0.645241 12.9069L17.5263 21.829C18.1429 22.1813 18.9327 21.9717 19.2887 21.3616C19.6447 20.7514 19.4329 19.9699 18.8163 19.6176L1.9353 10.6962C1.72334 10.5752 1.49095 10.5203 1.26274 10.5255Z" fill="#757575"/>
</svg>
