<svg width="36" height="36" viewBox="0 0 36 36" fill="none" xmlns="http://www.w3.org/2000/svg">
<path d="M18 7.8C19.6016 7.8 20.9 6.50163 20.9 4.9C20.9 3.29837 19.6016 2 18 2C16.3983 2 15.1 3.29837 15.1 4.9C15.1 6.50163 16.3983 7.8 18 7.8Z" fill="#FFD748"/>
<path d="M18 20.9001C19.6016 20.9001 20.9 19.6017 20.9 18.0001C20.9 16.3985 19.6016 15.1001 18 15.1001C16.3983 15.1001 15.1 16.3985 15.1 18.0001C15.1 19.6017 16.3983 20.9001 18 20.9001Z" fill="#FFD748"/>
<path d="M18 34C19.6016 34 20.9 32.7016 20.9 31.1C20.9 29.4983 19.6016 28.2 18 28.2C16.3983 28.2 15.1 29.4983 15.1 31.1C15.1 32.7016 16.3983 34 18 34Z" fill="#FFD748"/>
</svg>
