<svg width="31" height="22" viewBox="0 0 31 22" fill="none" xmlns="http://www.w3.org/2000/svg">
<path d="M15.9316 0C14.6449 0 13.6006 1.41326 13.6006 3.14918C13.6006 4.88373 14.6449 6.29697 15.9316 6.29697C17.2183 6.29697 18.2619 4.88375 18.2619 3.14918C18.2619 1.41326 17.2183 0 15.9316 0ZM3.04864 1.77128C2.41711 1.77128 1.90433 2.29765 1.90433 2.94593C1.90433 3.5942 2.41711 4.12057 3.04864 4.12057L9.25775 4.12125C9.88929 4.12125 10.4021 3.59488 10.4021 2.94661C10.4021 2.29834 9.88929 1.77196 9.25775 1.77196L3.04864 1.77128ZM25.3277 2.21444C24.9731 2.2138 24.5837 2.26709 24.1545 2.379C21.7605 3.48774 21.8314 6.21021 22.1642 8.23349L19.3637 8.22175C17.9067 8.21695 16.7139 9.38179 16.7088 10.9215C16.7066 11.6858 16.8815 12.4846 17.3499 13.091C17.1367 13.3381 16.9687 13.6226 16.8542 13.9311C16.471 14.9722 16.6355 16.246 17.3466 17.0961C17.2498 17.2131 16.9637 17.6817 16.9607 17.6817C16.3479 18.9439 16.7527 20.857 17.9426 21.6191C18.3175 21.859 18.7751 21.9995 19.3193 22L27.4216 21.9945C29.366 21.9193 31.0021 20.328 31 18.286V11.962C31 10.8924 30.3491 9.58192 29.9507 8.63311C29.4195 7.36919 28.9067 6.09911 28.3949 4.82715C27.7471 3.22857 26.8642 2.21723 25.3277 2.21446L25.3277 2.21444ZM25.3829 4.75176C26.025 4.72603 26.2953 5.8003 26.47 6.23196C26.9263 7.36537 27.3824 9.06973 27.8554 10.1956C28.2965 11.2448 28.6573 12.1415 28.6582 12.4867V18.0937C28.6592 19.005 27.898 19.6898 27.0445 19.7226L19.9215 19.7274C19.5674 19.7274 19.3687 19.5235 19.2769 19.1958C19.182 18.8634 19.1383 18.4474 19.3672 18.1601C19.5039 17.988 19.7125 17.8806 19.9302 17.8787C20.3746 17.8992 20.7479 17.4961 20.7479 17.0504C20.7479 16.5938 20.3881 16.2234 19.9437 16.2215C19.7472 16.2215 19.5581 16.1327 19.4238 15.9871C19.1184 15.6461 19.087 14.8925 19.4197 14.5553C19.4938 14.4806 19.5854 14.42 19.6851 14.3824C19.7675 14.3515 19.8536 14.3347 19.937 14.3347C20.3809 14.3347 20.7479 13.9622 20.7479 13.5051C20.7479 13.0485 20.3881 12.678 19.9437 12.6761C19.3395 12.6761 19.2221 12.0488 19.223 11.5741C19.223 11.3101 19.3702 11.0649 19.5908 10.9346C19.5611 10.8884 23.632 10.8453 24.0764 10.8468C24.6646 10.8468 25.0785 10.1869 24.7889 9.62858C24.2112 8.51516 23.8315 5.0737 25.2496 4.77243C25.2958 4.76042 25.3402 4.75341 25.383 4.75167L25.3829 4.75176ZM1.12037 10.5489C0.966925 10.5525 0.815756 10.5878 0.67585 10.6526C0.0988001 10.9194 -0.158607 11.6179 0.10135 12.2102C1.52721 15.457 4.26558 17.802 7.48033 18.7346C8.11246 18.9175 8.7587 19.0445 9.41196 19.1142C10.0533 19.1822 10.7065 19.1981 11.3564 19.1543L11.4177 19.1501L11.4695 19.146C12.1011 19.0981 12.5756 18.5325 12.529 17.8842C12.4823 17.2359 11.9307 16.7495 11.2991 16.7974L11.2466 16.8008L11.2344 16.8029C10.705 16.84 10.1734 16.8303 9.64563 16.7739C9.1257 16.7186 8.60739 16.6145 8.09993 16.4676C5.52785 15.7216 3.33553 13.8428 2.19323 11.2423C1.99828 10.798 1.56723 10.5383 1.12033 10.5488L1.12037 10.5489Z" fill="#757575"/>
</svg>
