<svg width="25" height="22" viewBox="0 0 25 22" fill="none" xmlns="http://www.w3.org/2000/svg">
<path d="M23.874 4.49162C23.4944 3.61266 22.9471 2.81616 22.2626 2.1467C21.5776 1.47524 20.77 0.941643 19.8837 0.574922C18.9646 0.193145 17.9789 -0.00227068 16.9837 1.9906e-05C15.5875 1.9906e-05 14.2253 0.382344 13.0415 1.10451C12.7583 1.27726 12.4893 1.46701 12.2344 1.67375C11.9795 1.46701 11.7105 1.27726 11.4272 1.10451C10.2435 0.382344 8.88125 1.9906e-05 7.48506 1.9906e-05C6.47969 1.9906e-05 5.50547 0.192598 4.58506 0.574922C3.6958 0.943086 2.89434 1.47267 2.20615 2.1467C1.52079 2.8154 0.973307 3.61209 0.594727 4.49162C0.201074 5.40636 0 6.37775 0 7.37746C0 8.32052 0.192578 9.30324 0.574902 10.3029C0.894922 11.1384 1.35371 12.005 1.93994 12.8801C2.86885 14.2649 4.14609 15.7093 5.73203 17.1734C8.36016 19.6005 10.9628 21.2771 11.0732 21.345L11.7444 21.7755C12.0418 21.9652 12.4241 21.9652 12.7215 21.7755L13.3927 21.345C13.5031 21.2742 16.1029 19.6005 18.7339 17.1734C20.3198 15.7093 21.5971 14.2649 22.526 12.8801C23.1122 12.005 23.5738 11.1384 23.891 10.3029C24.2733 9.30324 24.4659 8.32052 24.4659 7.37746C24.4688 6.37775 24.2677 5.40636 23.874 4.49162Z" fill="#FFD748"/>
</svg>
