<svg width="25" height="22" viewBox="0 0 25 22" fill="none" xmlns="http://www.w3.org/2000/svg">
<path d="M6.50523 0C4.99804 0 3.77496 1.58373 3.77496 3.52906C3.77496 5.47245 4.99804 7.0566 6.50523 7.0566C8.01242 7.0566 9.23471 5.47245 9.23471 3.52906C9.23471 1.58373 8.0124 0 6.50523 0ZM18.3644 0C16.8572 0 15.6349 1.58373 15.6349 3.52906C15.6349 5.47245 16.8572 7.0566 18.3644 7.0566C19.8715 7.0566 21.0946 5.47245 21.0946 3.52906C21.0946 1.58373 19.8715 0 18.3644 0ZM23.5472 14.638C23.2114 14.6406 22.877 14.7719 22.6231 15.0314C22.5243 15.1324 22.424 15.232 22.3221 15.33C19.5711 17.9876 16.0214 19.3361 12.4636 19.3663C8.93243 19.3975 5.38747 18.1304 2.60119 15.5615L2.53274 15.5027L2.2317 15.2101C1.71523 14.7005 0.883718 14.7065 0.376534 15.2254C-0.130725 15.7442 -0.125124 16.5796 0.391319 17.0892C0.483964 17.1808 0.604239 17.2935 0.750699 17.4299L0.823033 17.5025C4.11565 20.5382 8.30786 22.0354 12.4854 21.9994C16.6934 21.9638 20.8908 20.37 24.1407 17.2305C24.26 17.1155 24.3775 16.9986 24.493 16.8799C25.0003 16.3611 24.9947 15.5265 24.4783 15.0169C24.22 14.7618 23.883 14.6353 23.5472 14.638L23.5472 14.638Z" fill="#757575"/>
</svg>
