<svg width="49" height="49" viewBox="0 0 49 49" fill="none" xmlns="http://www.w3.org/2000/svg">
<path d="M24.5 3.0625C12.6615 3.0625 3.0625 12.6615 3.0625 24.5C3.0625 36.3385 12.6615 45.9375 24.5 45.9375C36.3385 45.9375 45.9375 36.3385 45.9375 24.5C45.9375 12.6615 36.3385 3.0625 24.5 3.0625ZM24.5 42.3008C14.6713 42.3008 6.69922 34.3287 6.69922 24.5C6.69922 14.6713 14.6713 6.69922 24.5 6.69922C34.3287 6.69922 42.3008 14.6713 42.3008 24.5C42.3008 34.3287 34.3287 42.3008 24.5 42.3008Z" fill="#FFD748" fill-opacity="0.8"/>
<path d="M24.5 6.69922C14.6713 6.69922 6.69922 14.6713 6.69922 24.5C6.69922 34.3287 14.6713 42.3008 24.5 42.3008C34.3287 42.3008 42.3008 34.3287 42.3008 24.5C42.3008 14.6713 34.3287 6.69922 24.5 6.69922ZM33.7545 17.4993L23.677 31.472C23.5361 31.6686 23.3504 31.8287 23.1353 31.9393C22.9202 32.0498 22.6818 32.1074 22.44 32.1074C22.1981 32.1074 21.9598 32.0498 21.7447 31.9393C21.5296 31.8287 21.3439 31.6686 21.203 31.472L15.2407 23.2032C15.0589 22.9496 15.2407 22.5955 15.5518 22.5955H17.796C18.2889 22.5955 18.7482 22.8348 19.0354 23.2319L22.4424 27.9597L29.9646 17.528C30.2518 17.1261 30.7159 16.8916 31.204 16.8916H33.4482C33.7593 16.8916 33.9411 17.2457 33.7545 17.4993Z" fill="#FFD748" fill-opacity="0.1"/>
<path d="M33.4482 16.8916H31.204C30.7159 16.8916 30.2518 17.1261 29.9646 17.528L22.4424 27.9597L19.0353 23.2319C18.7482 22.8348 18.2889 22.5955 17.796 22.5955H15.5518C15.2407 22.5955 15.0589 22.9496 15.2407 23.2032L21.203 31.472C21.3439 31.6686 21.5296 31.8288 21.7447 31.9393C21.9598 32.0498 22.1981 32.1074 22.44 32.1074C22.6818 32.1074 22.9202 32.0498 23.1353 31.9393C23.3504 31.8288 23.5361 31.6686 23.6769 31.472L33.7545 17.4993C33.9411 17.2457 33.7593 16.8916 33.4482 16.8916Z" fill="#FFD748" fill-opacity="0.8"/>
</svg>
