<svg width="30" height="27" viewBox="0 0 30 27" fill="none" xmlns="http://www.w3.org/2000/svg">
<path d="M28.7531 5.9303C28.2959 4.87172 27.6367 3.91244 26.8123 3.10616C25.9873 2.29748 25.0147 1.65484 23.9472 1.21317C22.8404 0.753369 21.6532 0.518017 20.4546 0.520776C18.7731 0.520776 17.1325 0.981234 15.7067 1.85099C15.3657 2.05905 15.0416 2.28757 14.7347 2.53656C14.4277 2.28757 14.1037 2.05905 13.7626 1.85099C12.3369 0.981234 10.6963 0.520776 9.01475 0.520776C7.80391 0.520776 6.6306 0.75271 5.52209 1.21317C4.4511 1.65657 3.48584 2.29439 2.65701 3.10616C1.83159 3.91153 1.17222 4.87103 0.716268 5.9303C0.242167 7.03199 0 8.20189 0 9.40591C0 10.5417 0.231935 11.7252 0.692393 12.9293C1.07781 13.9354 1.63036 14.9792 2.3364 16.0331C3.45514 17.701 4.99341 19.4405 6.90346 21.2039C10.0687 24.1269 13.2032 26.1461 13.3362 26.228L14.1446 26.7464C14.5027 26.9749 14.9632 26.9749 15.3213 26.7464L16.1297 26.228C16.2627 26.1427 19.3938 24.1269 22.5625 21.2039C24.4725 19.4405 26.0108 17.701 27.1295 16.0331C27.8356 14.9792 28.3915 13.9354 28.7735 12.9293C29.234 11.7252 29.4659 10.5417 29.4659 9.40591C29.4693 8.20189 29.2272 7.03199 28.7531 5.9303Z" fill="white"/>
</svg>
